<?xml version="1.0" standalone="no"?><!DOCTYPE svg PUBLIC "-//W3C//DTD SVG 1.1//EN" "http://www.w3.org/Graphics/SVG/1.1/DTD/svg11.dtd"><svg t="1625293579752" class="icon" viewBox="0 0 1024 1024" version="1.1" xmlns="http://www.w3.org/2000/svg" p-id="7378" xmlns:xlink="http://www.w3.org/1999/xlink" width="200" height="200"><defs><style type="text/css"></style></defs><path d="M512.4 959.6c247.3 0 447.8-200.5 447.8-447.8S759.7 63.9 512.4 63.9 64.6 264.4 64.6 511.8s200.5 447.8 447.8 447.8z m0-66.4c-210.7 0-381.5-170.8-381.5-381.5s170.8-381.5 381.5-381.5S893.9 301 893.9 511.7 723.1 893.2 512.4 893.2z" p-id="7379"></path><path d="M733.4 702c-123.5-123.5-321.8-126.1-442.7-5.1-12.9 13-12.9 33.9 0 46.9 13 12.9 33.9 12.9 46.9 0 94.8-94.8 251-92.7 348.9 5.1 12.6 13.3 33.6 13.8 46.9 1.2 13.3-12.6 13.8-33.6 1.2-46.9l-1.2-1.2zM304.8 432.9c0 28.6 23.2 51.8 51.8 51.8 28.6 0 51.8-23.2 51.8-51.8s-23.2-51.8-51.8-51.8c-28.6 0-51.8 23.2-51.8 51.8zM615.6 432.9c0 28.6 23.2 51.8 51.8 51.8 28.6 0 51.8-23.2 51.8-51.8v-0.1c0-28.6-23.2-51.8-51.8-51.8-28.6 0.1-51.8 23.3-51.8 51.9z" p-id="7380"></path></svg>