<?xml version="1.0" standalone="no"?><!DOCTYPE svg PUBLIC "-//W3C//DTD SVG 1.1//EN" "http://www.w3.org/Graphics/SVG/1.1/DTD/svg11.dtd"><svg t="1624084909277" class="icon" viewBox="0 0 1024 1024" version="1.1" xmlns="http://www.w3.org/2000/svg" p-id="2574" xmlns:xlink="http://www.w3.org/1999/xlink" width="200" height="200"><defs><style type="text/css"></style></defs><path d="M182.272 573.44c-28.672-28.672-28.672-75.776 0-104.448L514.048 145.408c14.336-14.336 32.768-20.48 51.2-20.48h264.192c40.96 0 73.728 32.768 73.728 73.728v264.192c0 20.48-8.192 38.912-22.528 53.248L550.912 837.632c-14.336 14.336-32.768 22.528-51.2 22.528-20.48 0-38.912-8.192-51.2-22.528L182.272 573.44z m548.864-204.8c40.96 0 73.728-32.768 73.728-73.728s-32.768-73.728-73.728-73.728-73.728 32.768-73.728 73.728 34.816 73.728 73.728 73.728z" fill="#00E28B" p-id="2575"></path></svg>